<svg xmlns="http://www.w3.org/2000/svg" viewBox="0 0 32 32">
  <rect width="32" height="32" rx="6" fill="#080a12"/>
  <g transform="translate(16,16) scale(0.026)">
    <path d="M177.28,402.851L402.132,402.851L512,192.259L621.499,402.303L847.996,402.303C847.996,402.303 735.45,504.681 660.222,600.321C559.748,728.058 512,833.908 512,833.908C512,833.908 441.477,701.738 370.239,607.202C317.332,536.992 177.28,402.851 177.28,402.851Z" style="fill:rgb(43,84,88);" transform="translate(-512,-512)"/>
    <g transform="matrix(0.618747,0,0,0.618747,-316.555,-303.772)">
      <path d="M163.711,402.851L389.933,402.851L512,167.281L633.116,402.303L860.877,402.303C860.877,402.303 770.678,463.883 660.222,612.12C539.404,774.263 512,879.135 512,879.135C512,879.135 456.814,738.48 370.239,619.001C282.154,497.436 163.711,402.851 163.711,402.851Z" style="fill:rgb(17,34,42);"/>
    </g>
    <path d="M512.638,192.259L402.132,402.851L177.28,402.851L296.74,457.491L436.715,457.491L512,311.733L512.243,311.733L587.183,457.152L728.11,457.491L847.996,402.851L847.996,402.303L621.499,402.303L512.638,192.259Z" style="fill:rgb(213,177,117);" transform="translate(-512,-512)"/>
  </g>
</svg>
