<?xml version="1.0" encoding="UTF-8" standalone="no"?>
<!DOCTYPE svg PUBLIC "-//W3C//DTD SVG 1.1//EN" "http://www.w3.org/Graphics/SVG/1.1/DTD/svg11.dtd">
<svg width="100%" height="100%" viewBox="0 0 1024 1024" version="1.1" xmlns="http://www.w3.org/2000/svg" xmlns:xlink="http://www.w3.org/1999/xlink" xml:space="preserve" xmlns:serif="http://www.serif.com/" style="fill-rule:evenodd;clip-rule:evenodd;stroke-linejoin:round;stroke-miterlimit:2;">
    <g transform="matrix(1,0,0,1,-1683.54,0)">
        <g id="Artboard1" transform="matrix(1,0,0,1,1683.54,0)">
            <rect x="0" y="0" width="1024" height="1024" style="fill:none;"/>
            <path d="M177.28,402.851L402.132,402.851L512,192.259L621.499,402.303L847.996,402.303C847.996,402.303 735.45,504.681 660.222,600.321C559.748,728.058 512,833.908 512,833.908C512,833.908 441.477,701.738 370.239,607.202C317.332,536.992 177.28,402.851 177.28,402.851Z" style="fill:rgb(43,84,88);"/>
            <g transform="matrix(0.618747,0,0,0.618747,195.445,208.228)">
                <path d="M163.711,402.851L389.933,402.851L512,167.281L633.116,402.303L860.877,402.303C860.877,402.303 770.678,463.883 660.222,612.12C539.404,774.263 512,879.135 512,879.135C512,879.135 456.814,738.48 370.239,619.001C282.154,497.436 163.711,402.851 163.711,402.851Z" style="fill:rgb(17,34,42);"/>
            </g>
            <path d="M177.28,402.851L296.74,457.491L177.28,402.851Z" style="fill:none;"/>
            <path d="M512.638,192.259L402.132,402.851L177.28,402.851L296.74,457.491L436.715,457.491L512,311.733L512.243,311.733L587.183,457.152L728.11,457.491L847.996,402.851L847.996,402.303L621.499,402.303L512.638,192.259Z" style="fill:rgb(213,177,117);"/>
            <g transform="matrix(1,0,0,1,8.77471,0)">
                <path d="M538.086,788.019C538.086,788.019 575.993,724.37 663.038,637.606C721.539,579.294 784.62,536.151 784.62,536.151L853.132,572.092L854.817,609.718C854.817,609.718 755.723,649.789 693.082,681.881C659.71,698.978 623.688,718.441 595.656,738.734C561.192,763.683 538.086,788.019 538.086,788.019" style="fill:rgb(213,177,117);"/>
            </g>
            <g transform="matrix(-1,0,0,1,1013.8,0)">
                <path d="M538.086,788.019C538.086,788.019 575.993,724.37 663.038,637.606C721.539,579.294 784.62,536.151 784.62,536.151L853.132,572.092L854.817,609.718C854.817,609.718 755.723,649.789 693.082,681.881C659.71,698.978 623.688,718.441 595.656,738.734C561.192,763.683 538.086,788.019 538.086,788.019" style="fill:rgb(213,177,117);"/>
            </g>
            <g transform="matrix(1.04853,0.372136,-0.372136,1.04853,265.241,-218.193)">
                <path d="M538.086,788.019C538.086,788.019 575.993,724.37 663.038,637.606C721.539,579.294 784.62,536.151 784.62,536.151L853.132,572.092L854.817,609.718C854.817,609.718 755.723,649.789 693.082,681.881C659.71,698.978 623.688,718.441 595.656,738.734C561.192,763.683 538.086,788.019 538.086,788.019" style="fill:rgb(213,177,117);"/>
            </g>
            <g transform="matrix(-1.04853,0.372136,0.372136,1.04853,759.61,-218.193)">
                <path d="M538.086,788.019C538.086,788.019 543.575,778.803 555.171,762.605C574.05,736.233 609.115,691.355 663.038,637.606C721.539,579.294 784.62,536.151 784.62,536.151L853.132,572.092L854.817,609.718C854.817,609.718 755.723,649.789 693.082,681.881C659.71,698.978 623.688,718.441 595.656,738.734C561.192,763.683 538.086,788.019 538.086,788.019" style="fill:rgb(213,177,117);"/>
            </g>
        </g>
    </g>
</svg>
